inDegrees=no
num_controls=7
num_derivatives=13
num_iterations=136
num_multipliers=7
num_parameters=0
num_slacks=7
num_states=26
objective=0.516712
objective_accelerations=0.040361
objective_balance=0.002178
objective_effort=0.043963
objective_height=0.418617
objective_ligament=0.011594
solver_duration=1801.993457
status=Solve_Succeeded
success=true
DataType=double
version=3
OpenSimVersion=4.5
endheader
time	/jointset/ground_pelvis/pelvis_tilt/value	/jointset/ground_pelvis/pelvis_tx/value	/jointset/ground_pelvis/pelvis_ty/value	/jointset/hip_l/hip_flexion_l/value	/jointset/hip_l/hip_adduction_l/value	/jointset/hip_l/hip_rotation_l/value	/jointset/back/lumbar_extension/value	/jointset/patellofemoral_l/patellar_flexion_l/value	/jointset/knee_l/knee_flexion_l/value	/jointset/knee_l/knee_adduction_l/value	/jointset/knee_l/knee_rotation_l/value	/jointset/ankle_l/ankle_angle_l/value	/jointset/subtalar_l/subtalar_angle_l/value	/jointset/ground_pelvis/pelvis_tilt/speed	/jointset/ground_pelvis/pelvis_tx/speed	/jointset/ground_pelvis/pelvis_ty/speed	/jointset/hip_l/hip_flexion_l/speed	/jointset/hip_l/hip_adduction_l/speed	/jointset/hip_l/hip_rotation_l/speed	/jointset/back/lumbar_extension/speed	/jointset/patellofemoral_l/patellar_flexion_l/speed	/jointset/knee_l/knee_flexion_l/speed	/jointset/knee_l/knee_adduction_l/speed	/jointset/knee_l/knee_rotation_l/speed	/jointset/ankle_l/ankle_angle_l/speed	/jointset/subtalar_l/subtalar_angle_l/speed	/forceset/tau_hip_flexion_l	/forceset/tau_hip_adduction_l	/forceset/tau_hip_rotation_l	/forceset/tau_knee_flexion_l	/forceset/tau_ankle_angle_l	/forceset/tau_subtalar_angle_l	/forceset/tau_lumbar_extension	lambda_cid13_p0	lambda_cid13_p1	lambda_cid13_p2	lambda_cid13_p3	lambda_cid13_p4	lambda_cid13_p5	lambda_cid14_p0	/jointset/ground_pelvis/pelvis_tilt/accel	/jointset/ground_pelvis/pelvis_tx/accel	/jointset/ground_pelvis/pelvis_ty/accel	/jointset/hip_l/hip_flexion_l/accel	/jointset/hip_l/hip_adduction_l/accel	/jointset/hip_l/hip_rotation_l/accel	/jointset/back/lumbar_extension/accel	/jointset/patellofemoral_l/patellar_flexion_l/accel	/jointset/knee_l/knee_flexion_l/accel	/jointset/knee_l/knee_adduction_l/accel	/jointset/knee_l/knee_rotation_l/accel	/jointset/ankle_l/ankle_angle_l/accel	/jointset/subtalar_l/subtalar_angle_l/accel	gamma_cid13_p0	gamma_cid13_p1	gamma_cid13_p2	gamma_cid13_p3	gamma_cid13_p4	gamma_cid13_p5	gamma_cid14_p0
1.5	-0.01552362593270104	-0.02517077494060378	0.8674214532348341	0.6381262277767027	-0.3128244325764841	-0.1754737775786779	-0.7832665024068434	0.648223416827031	0.6482234168269487	-0.1068693047919169	-0.1745189167125257	0.07480187670322216	0.006976783005184786	0.3902946099632377	0.2785175138142955	0.3501188708117336	-1.886623378863131	0.09374742291771494	-0.5421103639955765	0.8416420494335828	-1.664638270567354	-1.664638270567722	-0.1286676468384411	-7.299897587366013e-05	-0.2587394688690255	0.01813251508945075	-0.2045498402869607	0.01460536755223253	-0.003979838363225285	-0.1923458106286326	0.09362963769313414	0.04671122606615717	0.2797965028213259	-12.41472972625335	-20.31277099864959	5.296821431757542	-8.119893866644123	-672.0452732421563	-81.25276098920887	-19.66416589603049	-0.004381131820923858	0.6222641661249164	-0.5139165646535623	-0.6268130914740507	0.3256901416127083	-0.2230688773477957	1.727379244027383	-0.6632786529764106	-0.6632786529764061	-0.3054896398900673	0.03407071976228411	-0.01138759802154503	0.332794613611092	5.384013061408157e-09	1.051795365880691e-06	1.377876019282469e-07	1.626402126569285e-07	8.515648478624139e-08	1.609676743952341e-07	1.046967375796227e-07
1.51	-0.01162132709608955	-0.02235475109551354	0.8708962788067132	0.6192306732573322	-0.3118711719943451	-0.1809071433752223	-0.7747648753795365	0.6315459887993951	0.6315459887994584	-0.1081712440933424	-0.1745197429104425	0.07221427488775409	0.007174318766979253	0.3901128390690173	0.2846572402931121	0.3447803744891128	-1.892252266142985	0.09689507409278296	-0.5445029371495477	0.8585742048478269	-1.670623438477746	-1.670623438477736	-0.1317213429943594	-8.869279427755639e-05	-0.2587270937365274	0.02137965782442542	-0.1970977303927459	0.01375124806623092	-0.003922853916172665	-0.1896899431103435	0.09331173920819592	0.04581714295488537	0.2728733128659439	-12.3257999087283	-19.98674198112257	5.298186491045975	-7.931925409117541	-668.3069087560573	-81.17164135296245	-20.15852708730048	-0.0329325988319859	0.6053593046940985	-0.5536794266747816	-0.4956496831137071	0.3076805609535007	-0.2382863868978692	1.65976101314867	-0.5325719917205709	-0.5325719916638957	-0.3052737111864194	-0.01884484218675479	0.01564992583200694	0.3212281286353585	-3.035554198877423e-09	1.096788603093976e-06	1.718815291583103e-07	1.69651178559013e-07	8.538532448681581e-08	1.638542011711844e-07	1.035900095189237e-07
1.52	-0.007722417474542127	-0.01947822350244828	0.8743157467632443	0.6002858852377881	-0.3108867593093562	-0.1863626218738016	-0.7660972013334819	0.6148154218663251	0.6148154218665377	-0.1095037131778748	-0.1745206171284534	0.06962841679500018	0.007404436761162397	0.3896167669504209	0.2906182634092989	0.3390473477421523	-1.896470078897744	0.09997784348783809	-0.5465329044025631	0.8748514531830998	-1.675266051654138	-1.67526605165375	-0.1347736034600263	-8.260299448251205e-05	-0.2583907243261689	0.02464896156718814	-0.1896456204985332	0.01289712858022762	-0.003865869469114594	-0.1870340755920556	0.09299384072325689	0.04492305984361156	0.2659501229105609	-12.24260070427523	-19.65989827045616	5.299637171362432	-7.747091116716826	-664.6662604544919	-81.10972974754296	-20.62971177442519	-0.06724137669611202	0.5865234935989259	-0.5928226495214773	-0.3445981864549809	0.3127137856101338	-0.1505476971566276	1.596397828233162	-0.3947677061762983	-0.3947677061762974	-0.3052025018397548	0.03842744340207632	0.05341125755048808	0.3372268151686959	-1.021465888177822e-08	1.128720065440682e-06	1.97018104630136e-07	1.740477255395073e-07	8.613120860650203e-08	1.655440809847769e-07	1.021765879073827e-07
1.53	-0.003830065478213887	-0.01654305651514626	0.8776759608415733	0.5813060818719058	-0.3098718034780473	-0.1918367339621425	-0.7572702282607106	0.5980452106232929	0.5980452106233107	-0.1108665160165876	-0.1745214046337161	0.06704754289771322	0.0076674088579816	0.3887993718801637	0.2963769870418565	0.3329343537602996	-1.899242974896267	0.1030030280737559	-0.5482353358113834	0.8904126038262395	-1.678542687801351	-1.678542687801102	-0.1377764429555457	-7.646629274875855e-05	-0.2577303165185174	0.02795013685355388	-0.1820063517602812	0.01193708687209161	-0.00387173915361831	-0.1845292197890054	0.09279106470541454	0.04395384782927622	0.258843130789404	-12.1305374736135	-19.30272027594842	5.293099535041467	-7.518162559024823	-661.071035227402	-81.0162508146026	-21.07477179332433	-0.0971403051095461	0.5648600532591839	-0.6296872730471867	-0.2065073081367637	0.2956859617321899	-0.1718838399964683	1.516390050635532	-0.2591050976130257	-0.2591050976339425	-0.2960328375730793	-0.01851218438380772	0.08044570170924288	0.327056413888435	-1.607577207620771e-08	1.146773391991646e-06	2.126374938588344e-07	1.756664524158121e-07	8.742645242149453e-08	1.659625234008642e-07	1.004373043980721e-07
1.54	5.248222082839756e-05	-0.01355143964048362	0.8809732150799775	0.5623059751457214	-0.3088269427675492	-0.1973262289600219	-0.7482915604078515	0.5812492343130672	0.5812492343128846	-0.1122589888830907	-0.1745221745655474	0.06447489111037012	0.007963491413368037	0.3876559074931437	0.3019082408814212	0.3264553797572451	-1.900530750958224	0.1059588193256569	-0.5496094863102725	0.9051904092006237	-1.680419065093331	-1.680419065093222	-0.1407076090176664	-7.908830872866397e-05	-0.2567463023373959	0.0312710532806365	-0.1743670830220282	0.01097704516395675	-0.00387760883814879	-0.1820243639859535	0.0925882886875723	0.04298463581494145	0.2517361386682475	-12.02440371054742	-18.94404460551844	5.285798294887153	-7.289034992722441	-657.5749200264323	-80.93837750361075	-21.49081402749967	-0.1324552400486431	0.5410295350003012	-0.6660186537618424	-0.04757419914189887	0.2988351188067938	-0.0848915151703899	1.439728774482026	-0.1147159351296797	-0.1147159351296808	-0.290867815160008	0.03667569985934572	0.1181325322444456	0.3411750433120671	-1.322453227597177e-08	1.136730205360608e-06	1.839295202703636e-07	1.693913185843545e-07	9.611586736129267e-08	1.72137975387882e-07	1.016795444936757e-07
1.55	0.003921951105651435	-0.0105057195258917	0.8842039109339949	0.5433004422880873	-0.3077529474610707	-0.2028274976421952	-0.7391692074851705	0.5644414807762859	0.5644414807762203	-0.1136806976886406	-0.1745227785643517	0.06191364273921465	0.008292780219704962	0.386181659639755	0.3071900014319049	0.3196284898097293	-1.90031953019321	0.1088245629816409	-0.5505859258499411	0.9191315035455674	-1.680892442069285	-1.680892442069401	-0.1436255131748529	-4.295812102766892e-05	-0.2554520968543118	0.0345850681322132	-0.1665970814565949	0.009910829529980967	-0.003939584730300059	-0.1796822597625344	0.09251163540659256	0.04194701974501363	0.2445186001194217	-11.89066761967915	-18.55734133188744	5.270427473559785	-7.021403869427921	-654.2070382185079	-80.8379290199978	-21.87498735471266	-0.1633508897424391	0.5149113206787859	-0.6992947737105232	0.09390284060697292	0.2779323978462821	-0.09518159591619008	1.348998996021084	0.02220965910883914	0.02220965907503508	-0.2907662163766355	-0.01311851558171353	0.1427823602186831	0.3260927521083479	-3.351466340566502e-10	1.094314949193784e-06	1.041487156099399e-07	1.540210843722146e-07	1.133246533796708e-07	1.84946503619667e-07	1.063570183079848e-07
